<svg width="20" height="16" viewBox="0 0 20 16" fill="currentColor" xmlns="http://www.w3.org/2000/svg">
<path fill-rule="evenodd" clip-rule="evenodd" d="M0 1.95833C0 1.15292 0.652918 0.5 1.45833 0.5H18.5417C19.3471 0.5 20 1.15292 20 1.95833V14.0417C20 14.8471 19.3471 15.5 18.5417 15.5H1.45833C0.652918 15.5 0 14.8471 0 14.0417V1.95833ZM1.45833 1.75C1.34327 1.75 1.25 1.84327 1.25 1.95833V14.0417C1.25 14.1567 1.34327 14.25 1.45833 14.25H18.5417C18.6567 14.25 18.75 14.1567 18.75 14.0417V1.95833C18.75 1.84327 18.6567 1.75 18.5417 1.75H1.45833Z" fill="CURRENTCOLOR"/>
<path fill-rule="evenodd" clip-rule="evenodd" d="M4.16667 5.29167C4.16667 4.94649 4.44649 4.66667 4.79167 4.66667H14.375C14.7202 4.66667 15 4.94649 15 5.29167C15 5.63684 14.7202 5.91667 14.375 5.91667H4.79167C4.44649 5.91667 4.16667 5.63684 4.16667 5.29167Z" fill="CURRENTCOLOR"/>
<path fill-rule="evenodd" clip-rule="evenodd" d="M4.16667 8.625C4.16667 8.27982 4.44649 8 4.79167 8H9.375C9.72018 8 10 8.27982 10 8.625C10 8.97018 9.72018 9.25 9.375 9.25H4.79167C4.44649 9.25 4.16667 8.97018 4.16667 8.625Z" fill="CURRENTCOLOR"/>
</svg>
