<svg width="20" height="20" viewBox="0 0 20 20" fill="currentColor" xmlns="http://www.w3.org/2000/svg">
  <path fill-rule="evenodd" clip-rule="evenodd" d="M10 0.208344C10.2379 0.208344 10.4552 0.343405 10.5605 0.55674L13.1091 5.72076L18.8079 6.54885C19.0433 6.58306 19.2389 6.74796 19.3124 6.97422C19.386 7.20048 19.3247 7.44885 19.1543 7.61491L15.0306 11.6345L16.0041 17.3103C16.0443 17.5448 15.9479 17.7818 15.7554 17.9216C15.5629 18.0615 15.3078 18.0799 15.0972 17.9692L10 15.2895L4.90283 17.9692C4.69225 18.0799 4.43709 18.0615 4.24462 17.9216C4.05216 17.7818 3.95577 17.5448 3.99598 17.3103L4.96946 11.6345L0.845743 7.61491C0.675385 7.44885 0.614075 7.20048 0.68759 6.97422C0.761106 6.74796 0.956698 6.58306 1.19213 6.54885L6.89096 5.72076L9.43956 0.55674C9.54485 0.343405 9.76212 0.208344 10 0.208344Z" />
</svg>